<mxfile host="app.diagrams.net" modified="2021-11-10T09:26:31.558Z" agent="5.0 (Windows NT 10.0; Win64; x64) AppleWebKit/537.36 (KHTML, like Gecko) Chrome/95.0.4638.69 Safari/537.36" etag="BGGDJ8wx6dmvXZZpPIwj" version="15.7.1" type="github">
  <diagram id="ovnJkAI09GQuxPzjt7Gd" name="Halaman-1">
    <mxGraphModel dx="868" dy="527" grid="1" gridSize="10" guides="1" tooltips="1" connect="1" arrows="1" fold="1" page="1" pageScale="1" pageWidth="827" pageHeight="1169" math="0" shadow="0">
      <root>
        <mxCell id="0" />
        <mxCell id="1" parent="0" />
        <mxCell id="8r-zVtJabxCACw0IBOyv-13" value="" style="verticalLabelPosition=bottom;verticalAlign=top;html=1;shape=mxgraph.basic.half_circle;rounded=1;fontColor=#000000;strokeColor=default;fillColor=#FFB366;" parent="1" vertex="1">
          <mxGeometry x="31" y="583" width="100" height="50" as="geometry" />
        </mxCell>
        <mxCell id="fEQRCy_0V1r709Os7ZMC-23" value="" style="shape=tape;whiteSpace=wrap;html=1;strokeWidth=2;size=0.19;labelBackgroundColor=#FF0000;labelBorderColor=none;fontSize=30;fillColor=#fa6800;strokeColor=#C73500;fontColor=#000000;rounded=1;" parent="1" vertex="1">
          <mxGeometry x="320" y="30" width="190" height="120" as="geometry" />
        </mxCell>
        <mxCell id="fEQRCy_0V1r709Os7ZMC-5" value="&lt;h1 style=&quot;font-size: 30px&quot;&gt;&lt;p style=&quot;margin-top: 0pt ; margin-bottom: 0pt ; margin-left: 0in ; text-align: center ; direction: ltr ; unicode-bidi: embed ; word-break: normal ; font-size: 30px&quot;&gt;&lt;font face=&quot;Bahnschrift Condensed&quot; style=&quot;font-size: 30px&quot;&gt;&lt;span style=&quot;font-size: 30px&quot;&gt;Logika Predikat&lt;/span&gt;&lt;/font&gt;&lt;/p&gt;&lt;/h1&gt;" style="text;html=1;strokeColor=none;fillColor=none;spacing=5;spacingTop=-20;whiteSpace=wrap;overflow=hidden;labelBackgroundColor=none;fontColor=#FFFFFF;fontSize=30;labelBorderColor=none;glass=0;shadow=0;rounded=1;" parent="1" vertex="1">
          <mxGeometry x="352" y="45" width="126" height="90" as="geometry" />
        </mxCell>
        <mxCell id="fEQRCy_0V1r709Os7ZMC-24" value="Kuantor" style="whiteSpace=wrap;align=center;verticalAlign=middle;treeFolding=1;treeMoving=1;newEdgeStyle={&quot;edgeStyle&quot;:&quot;elbowEdgeStyle&quot;,&quot;startArrow&quot;:&quot;none&quot;,&quot;endArrow&quot;:&quot;none&quot;};shadow=0;glass=0;labelBackgroundColor=#CC6600;labelBorderColor=none;fontSize=30;fontColor=#FFFFFF;fillColor=none;spacingTop=0;spacing=2;html=1;horizontal=1;strokeColor=none;rounded=1;" parent="1" vertex="1">
          <mxGeometry x="125" y="316" width="110" height="60" as="geometry" />
        </mxCell>
        <mxCell id="fEQRCy_0V1r709Os7ZMC-25" value="" style="edgeStyle=elbowEdgeStyle;elbow=vertical;startArrow=none;endArrow=none;fontSize=30;fontColor=#FFFFFF;exitX=0.25;exitY=1;exitDx=0;exitDy=0;exitPerimeter=0;" parent="1" source="fEQRCy_0V1r709Os7ZMC-23" edge="1">
          <mxGeometry relative="1" as="geometry">
            <mxPoint x="419.94000000000005" y="249" as="sourcePoint" />
            <mxPoint x="180" y="328" as="targetPoint" />
            <Array as="points">
              <mxPoint x="280" y="280" />
              <mxPoint x="180" y="318" />
              <mxPoint x="160" y="284" />
              <mxPoint x="270" y="284" />
            </Array>
          </mxGeometry>
        </mxCell>
        <mxCell id="fEQRCy_0V1r709Os7ZMC-30" value="Negasi Kuantor" style="whiteSpace=wrap;html=1;align=center;verticalAlign=middle;treeFolding=1;treeMoving=1;newEdgeStyle={&quot;edgeStyle&quot;:&quot;elbowEdgeStyle&quot;,&quot;startArrow&quot;:&quot;none&quot;,&quot;endArrow&quot;:&quot;none&quot;};shadow=0;glass=0;labelBackgroundColor=#CC6600;labelBorderColor=none;fontSize=30;fontColor=#FFFFFF;fillColor=none;strokeColor=none;rounded=1;" parent="1" vertex="1">
          <mxGeometry x="580" y="332" width="100" height="60" as="geometry" />
        </mxCell>
        <mxCell id="fEQRCy_0V1r709Os7ZMC-31" value="" style="edgeStyle=elbowEdgeStyle;elbow=vertical;startArrow=none;endArrow=none;fontSize=30;fontColor=#FFFFFF;exitX=0.25;exitY=1;exitDx=0;exitDy=0;exitPerimeter=0;entryX=0.5;entryY=0;entryDx=0;entryDy=0;" parent="1" target="fEQRCy_0V1r709Os7ZMC-30" edge="1">
          <mxGeometry relative="1" as="geometry">
            <mxPoint x="367.5" y="180" as="sourcePoint" />
            <mxPoint x="630" y="320" as="targetPoint" />
            <Array as="points">
              <mxPoint x="500" y="280" />
            </Array>
          </mxGeometry>
        </mxCell>
        <mxCell id="fEQRCy_0V1r709Os7ZMC-32" value="" style="edgeStyle=orthogonalEdgeStyle;startArrow=none;endArrow=none;targetPortConstraint=eastwest;sourcePortConstraint=northsouth;fontSize=30;fontColor=#FFFFFF;" parent="1" source="fEQRCy_0V1r709Os7ZMC-24" target="fEQRCy_0V1r709Os7ZMC-34" edge="1">
          <mxGeometry relative="1" as="geometry">
            <mxPoint x="115" y="280" as="sourcePoint" />
          </mxGeometry>
        </mxCell>
        <mxCell id="fEQRCy_0V1r709Os7ZMC-33" value="" style="edgeStyle=orthogonalEdgeStyle;startArrow=none;endArrow=none;targetPortConstraint=eastwest;sourcePortConstraint=northsouth;fontSize=30;fontColor=#FFFFFF;exitX=0.5;exitY=0.833;exitDx=0;exitDy=0;exitPerimeter=0;" parent="1" source="fEQRCy_0V1r709Os7ZMC-24" target="fEQRCy_0V1r709Os7ZMC-35" edge="1">
          <mxGeometry relative="1" as="geometry">
            <mxPoint x="115" y="260" as="sourcePoint" />
          </mxGeometry>
        </mxCell>
        <mxCell id="fEQRCy_0V1r709Os7ZMC-34" value="Kuantor Umum(Universal)" style="whiteSpace=wrap;html=1;align=center;verticalAlign=middle;treeFolding=1;treeMoving=1;shadow=0;glass=0;labelBackgroundColor=#FF8000;labelBorderColor=none;fontSize=20;fontColor=#FFFFFF;fillColor=none;strokeColor=none;rounded=1;" parent="1" vertex="1">
          <mxGeometry x="10" y="453" width="140" height="60" as="geometry" />
        </mxCell>
        <mxCell id="fEQRCy_0V1r709Os7ZMC-35" value="Kuantor&lt;br style=&quot;font-size: 20px&quot;&gt;Eksistensial" style="whiteSpace=wrap;html=1;align=center;verticalAlign=middle;treeFolding=1;treeMoving=1;shadow=0;glass=0;labelBackgroundColor=#FF8000;labelBorderColor=none;fontSize=20;fontColor=#FFFFFF;fillColor=none;strokeColor=none;spacingTop=0;rounded=1;" parent="1" vertex="1">
          <mxGeometry x="235" y="453" width="100" height="60" as="geometry" />
        </mxCell>
        <mxCell id="fEQRCy_0V1r709Os7ZMC-38" value="" style="edgeStyle=orthogonalEdgeStyle;orthogonalLoop=1;jettySize=auto;html=1;fontSize=20;fontColor=#FFFFFF;exitX=0.5;exitY=0;exitDx=0;exitDy=0;entryX=0.5;entryY=0.967;entryDx=0;entryDy=0;entryPerimeter=0;" parent="1" source="fEQRCy_0V1r709Os7ZMC-36" target="fEQRCy_0V1r709Os7ZMC-30" edge="1">
          <mxGeometry relative="1" as="geometry">
            <mxPoint x="630" y="400" as="targetPoint" />
            <Array as="points" />
            <mxPoint x="620" y="536" as="sourcePoint" />
          </mxGeometry>
        </mxCell>
        <mxCell id="fEQRCy_0V1r709Os7ZMC-36" value="&lt;div style=&quot;margin-top: 0pt ; margin-bottom: 0pt ; margin-left: 0.5in ; text-indent: -0.5in ; text-align: left ; direction: ltr ; unicode-bidi: embed ; word-break: normal&quot;&gt;&lt;font style=&quot;font-size: 20px&quot; color=&quot;#ffffff&quot;&gt;&lt;span style=&quot;font-family: &amp;#34;bahnschrift semibold condensed&amp;#34;&quot;&gt;Merubah&lt;/span&gt;&lt;span style=&quot;font-family: &amp;#34;bahnschrift semibold condensed&amp;#34;&quot;&gt; &lt;/span&gt;&lt;span style=&quot;font-family: &amp;#34;bahnschrift semibold condensed&amp;#34;&quot;&gt;∀&lt;/span&gt;&lt;span style=&quot;font-family: &amp;#34;bahnschrift semibold condensed&amp;#34;&quot;&gt; &lt;/span&gt;&lt;span style=&quot;font-family: &amp;#34;bahnschrift semibold condensed&amp;#34;&quot;&gt;menjadi&lt;/span&gt;&lt;span style=&quot;font-family: &amp;#34;bahnschrift semibold condensed&amp;#34;&quot;&gt;&amp;nbsp; &lt;/span&gt;&lt;span style=&quot;font-family: &amp;#34;bahnschrift semibold condensed&amp;#34;&quot;&gt;Ǝ&lt;/span&gt;&lt;/font&gt;&lt;/div&gt;&lt;div style=&quot;margin-top: 0pt ; margin-bottom: 0pt ; margin-left: 0.5in ; text-indent: -0.5in ; text-align: left ; direction: ltr ; unicode-bidi: embed ; word-break: normal&quot;&gt;&lt;font color=&quot;#ffffff&quot;&gt;&lt;span style=&quot;text-indent: -0.5in ; font-family: &amp;#34;bahnschrift semibold condensed&amp;#34;&quot;&gt;Merubah&lt;/span&gt;&lt;span style=&quot;text-indent: -0.5in ; font-family: &amp;#34;bahnschrift semibold condensed&amp;#34;&quot;&gt; &lt;/span&gt;&lt;span style=&quot;text-indent: -0.5in ; font-family: &amp;#34;bahnschrift semibold condensed&amp;#34;&quot;&gt;Ǝ &lt;/span&gt;&lt;span style=&quot;text-indent: -0.5in ; font-family: &amp;#34;bahnschrift semibold condensed&amp;#34;&quot;&gt;menjadi&lt;/span&gt;&lt;span style=&quot;text-indent: -0.5in ; font-family: &amp;#34;bahnschrift semibold condensed&amp;#34;&quot;&gt; &lt;/span&gt;&lt;span style=&quot;text-indent: -0.5in ; font-family: &amp;#34;bahnschrift semibold condensed&amp;#34;&quot;&gt;∀&lt;/span&gt;&lt;/font&gt;&lt;/div&gt;&lt;font color=&quot;#ffffff&quot;&gt;&lt;span style=&quot;text-align: left ; text-indent: -0.5in ; font-family: &amp;#34;bahnschrift semibold condensed&amp;#34;&quot;&gt;Merubah&amp;nbsp;P&lt;/span&gt;&lt;span style=&quot;text-align: left ; text-indent: -0.5in ; font-family: &amp;#34;bahnschrift semibold condensed&amp;#34;&quot;&gt; &lt;/span&gt;&lt;span style=&quot;text-align: left ; text-indent: -0.5in ; font-family: &amp;#34;bahnschrift semibold condensed&amp;#34;&quot;&gt;menjadi&lt;/span&gt;&lt;span style=&quot;text-align: left ; text-indent: -0.5in ; font-family: &amp;#34;bahnschrift semibold condensed&amp;#34;&quot;&gt; &lt;/span&gt;&lt;span style=&quot;text-align: left ; text-indent: -0.5in ; font-family: &amp;#34;bahnschrift semibold condensed&amp;#34;&quot;&gt;~P&lt;/span&gt;&lt;/font&gt;" style="whiteSpace=wrap;html=1;arcSize=50;align=center;verticalAlign=middle;strokeWidth=1;autosize=1;spacing=0;treeFolding=1;treeMoving=1;newEdgeStyle={&quot;edgeStyle&quot;:&quot;entityRelationEdgeStyle&quot;,&quot;startArrow&quot;:&quot;none&quot;,&quot;endArrow&quot;:&quot;none&quot;,&quot;segment&quot;:10,&quot;curved&quot;:1};shadow=0;glass=0;labelBackgroundColor=none;labelBorderColor=none;fontSize=20;fillColor=#FF8000;spacingBottom=11;spacingLeft=11;strokeColor=#BD7000;fontColor=#000000;rounded=1;" parent="1" vertex="1">
          <mxGeometry x="515" y="448" width="230" height="90" as="geometry" />
        </mxCell>
        <mxCell id="8r-zVtJabxCACw0IBOyv-3" value="&lt;b&gt;Term &lt;br&gt;( Subjek / Huruf Kecil )&lt;/b&gt;" style="whiteSpace=wrap;html=1;shape=partialRectangle;top=0;left=0;bottom=1;right=0;points=[[0,1],[1,1]];fillColor=none;align=center;verticalAlign=bottom;routingCenterY=0.5;snapToPoint=1;recursiveResize=0;autosize=1;treeFolding=1;treeMoving=1;newEdgeStyle={&quot;edgeStyle&quot;:&quot;entityRelationEdgeStyle&quot;,&quot;startArrow&quot;:&quot;none&quot;,&quot;endArrow&quot;:&quot;none&quot;,&quot;segment&quot;:10,&quot;curved&quot;:1};rounded=1;" parent="1" vertex="1">
          <mxGeometry x="398" y="203" width="160" height="30" as="geometry" />
        </mxCell>
        <mxCell id="8r-zVtJabxCACw0IBOyv-4" value="" style="edgeStyle=entityRelationEdgeStyle;startArrow=none;endArrow=none;segment=10;entryX=0;entryY=1;entryDx=0;entryDy=0;" parent="1" target="8r-zVtJabxCACw0IBOyv-3" edge="1">
          <mxGeometry relative="1" as="geometry">
            <mxPoint x="370" y="200" as="sourcePoint" />
            <mxPoint x="390" y="210" as="targetPoint" />
          </mxGeometry>
        </mxCell>
        <mxCell id="8r-zVtJabxCACw0IBOyv-5" value="&lt;b&gt;Predikat &lt;br&gt;( Huruf Kapital )&lt;/b&gt;" style="whiteSpace=wrap;html=1;shape=partialRectangle;top=0;left=0;bottom=1;right=0;points=[[0,1],[1,1]];fillColor=none;align=center;verticalAlign=bottom;routingCenterY=0.5;snapToPoint=1;recursiveResize=0;autosize=1;treeFolding=1;treeMoving=1;newEdgeStyle={&quot;edgeStyle&quot;:&quot;entityRelationEdgeStyle&quot;,&quot;startArrow&quot;:&quot;none&quot;,&quot;endArrow&quot;:&quot;none&quot;,&quot;segment&quot;:10,&quot;curved&quot;:1};rounded=1;" parent="1" vertex="1">
          <mxGeometry x="214" y="196" width="120" height="37" as="geometry" />
        </mxCell>
        <mxCell id="8r-zVtJabxCACw0IBOyv-6" value="" style="edgeStyle=entityRelationEdgeStyle;startArrow=none;endArrow=none;segment=10;exitX=1;exitY=1;exitDx=0;exitDy=0;" parent="1" source="8r-zVtJabxCACw0IBOyv-5" edge="1">
          <mxGeometry relative="1" as="geometry">
            <mxPoint x="335" y="220" as="sourcePoint" />
            <mxPoint x="370" y="200" as="targetPoint" />
          </mxGeometry>
        </mxCell>
        <mxCell id="8r-zVtJabxCACw0IBOyv-10" value="" style="shape=singleArrow;direction=south;whiteSpace=wrap;html=1;rounded=1;fontColor=#FFFFFF;fillColor=none;" parent="1" vertex="1">
          <mxGeometry x="72" y="520" width="18" height="56" as="geometry" />
        </mxCell>
        <mxCell id="8r-zVtJabxCACw0IBOyv-12" value="&lt;span style=&quot;font-family: &amp;quot;bahnschrift semibold condensed&amp;quot;; font-size: 28px; text-align: left; text-indent: -48px;&quot;&gt;&lt;b style=&quot;line-height: 2; font-size: 28px;&quot;&gt;∀&lt;/b&gt;&lt;/span&gt;" style="text;html=1;strokeColor=none;fillColor=none;align=center;verticalAlign=middle;whiteSpace=wrap;rounded=0;fontColor=#FFFFFF;fontSize=28;" parent="1" vertex="1">
          <mxGeometry x="51" y="589" width="60" height="30" as="geometry" />
        </mxCell>
        <mxCell id="8r-zVtJabxCACw0IBOyv-14" value="" style="shape=singleArrow;direction=south;whiteSpace=wrap;html=1;rounded=1;fontColor=#FFFFFF;fillColor=none;" parent="1" vertex="1">
          <mxGeometry x="271" y="520" width="18" height="56" as="geometry" />
        </mxCell>
        <mxCell id="8r-zVtJabxCACw0IBOyv-15" value="" style="verticalLabelPosition=bottom;verticalAlign=top;html=1;shape=mxgraph.basic.half_circle;rounded=1;fontColor=#000000;strokeColor=default;fillColor=#FFB366;" parent="1" vertex="1">
          <mxGeometry x="230" y="583" width="100" height="50" as="geometry" />
        </mxCell>
        <mxCell id="8r-zVtJabxCACw0IBOyv-16" value="&lt;span style=&quot;text-align: left; text-indent: -48px;&quot;&gt;&lt;b&gt;&lt;font style=&quot;font-size: 27px&quot;&gt;Ǝ&lt;/font&gt;&lt;/b&gt;&lt;/span&gt;" style="text;html=1;strokeColor=none;fillColor=none;align=center;verticalAlign=middle;whiteSpace=wrap;rounded=0;fontColor=#FFFFFF;fontSize=28;fontFamily=Times New Roman;" parent="1" vertex="1">
          <mxGeometry x="250" y="589" width="60" height="30" as="geometry" />
        </mxCell>
        <mxCell id="8r-zVtJabxCACw0IBOyv-17" value="" style="whiteSpace=wrap;html=1;shape=mxgraph.basic.cloud_rect;rounded=1;fontFamily=Helvetica;fontSize=27;fontColor=#FFFFFF;strokeColor=default;fillColor=#FFCC99;" parent="1" vertex="1">
          <mxGeometry x="31" y="650" width="229" height="90" as="geometry" />
        </mxCell>
        <mxCell id="8r-zVtJabxCACw0IBOyv-18" value="&lt;p style=&quot;margin-top: 0pt ; margin-bottom: 0pt ; margin-left: 0in ; direction: ltr ; unicode-bidi: embed ; word-break: normal ; font-size: 15px&quot;&gt;&lt;font style=&quot;font-size: 15px&quot;&gt;&lt;span style=&quot;font-family: &amp;#34;bahnschrift semibold condensed&amp;#34; ; color: black&quot;&gt;Jika pernyataan memakai &lt;/span&gt;&lt;span style=&quot;font-family: &amp;#34;bahnschrift semibold condensed&amp;#34; ; color: rgb(0 , 112 , 192)&quot;&gt;kuantor universal (∀)&lt;/span&gt;&lt;span style=&quot;font-family: &amp;#34;bahnschrift semibold condensed&amp;#34; ; color: black&quot;&gt;,&amp;nbsp;&lt;/span&gt;&lt;/font&gt;&lt;font style=&quot;font-size: 15px&quot;&gt;&lt;span style=&quot;font-family: &amp;#34;bahnschrift semibold condensed&amp;#34; ; color: black&quot;&gt;maka gunakan &lt;/span&gt;&lt;span style=&quot;font-family: &amp;#34;bahnschrift semibold condensed&amp;#34; ; color: rgb(0 , 112 , 192)&quot;&gt;implikasi (→)&lt;/span&gt;&lt;span style=&quot;font-family: &amp;#34;bahnschrift semibold condensed&amp;#34; ; color: black&quot;&gt;,&amp;nbsp;&lt;/span&gt;&lt;/font&gt;&lt;span style=&quot;color: black ; font-family: &amp;#34;bahnschrift semibold condensed&amp;#34;&quot;&gt;yaitu&amp;nbsp;&lt;/span&gt;&lt;span style=&quot;font-family: &amp;#34;bahnschrift semibold condensed&amp;#34; ; color: rgb(0 , 112 , 192)&quot;&gt;“&lt;/span&gt;&lt;span style=&quot;font-family: &amp;#34;bahnschrift semibold condensed&amp;#34; ; color: rgb(0 , 112 , 192)&quot;&gt;Untuk&lt;/span&gt;&lt;span style=&quot;font-family: &amp;#34;bahnschrift semibold condensed&amp;#34; ; color: rgb(0 , 112 , 192)&quot;&gt; &lt;/span&gt;&lt;span style=&quot;font-family: &amp;#34;bahnschrift semibold condensed&amp;#34; ; color: rgb(0 , 112 , 192)&quot;&gt;semua&lt;/span&gt;&lt;span style=&quot;font-family: &amp;#34;bahnschrift semibold condensed&amp;#34; ; color: rgb(0 , 112 , 192)&quot;&gt; … &lt;/span&gt;&lt;span style=&quot;font-family: &amp;#34;bahnschrift semibold condensed&amp;#34; ; color: rgb(0 , 112 , 192)&quot;&gt;Jika......maka.....”&lt;/span&gt;&lt;/p&gt;" style="text;html=1;strokeColor=none;fillColor=none;align=left;verticalAlign=middle;whiteSpace=wrap;rounded=0;fontFamily=Helvetica;fontSize=27;fontColor=#FFFFFF;rotation=0;" parent="1" vertex="1">
          <mxGeometry x="37.5" y="660" width="219.5" height="70" as="geometry" />
        </mxCell>
        <mxCell id="8r-zVtJabxCACw0IBOyv-25" value="" style="strokeWidth=2;html=1;shape=mxgraph.flowchart.annotation_1;align=left;pointerEvents=1;rounded=1;fontFamily=Helvetica;fontSize=8;fontColor=#FFFFFF;fillColor=#FFCC99;gradientColor=none;" parent="1" vertex="1">
          <mxGeometry x="10" y="600" width="20" height="80" as="geometry" />
        </mxCell>
        <mxCell id="8r-zVtJabxCACw0IBOyv-26" value="" style="strokeWidth=2;html=1;shape=mxgraph.flowchart.annotation_1;align=left;pointerEvents=1;rounded=1;fontFamily=Helvetica;fontSize=8;fontColor=#FFFFFF;fillColor=#FFCC99;gradientColor=none;direction=west;" parent="1" vertex="1">
          <mxGeometry x="330" y="600" width="20" height="180" as="geometry" />
        </mxCell>
        <mxCell id="8r-zVtJabxCACw0IBOyv-27" value="" style="whiteSpace=wrap;html=1;shape=mxgraph.basic.cloud_rect;rounded=1;fontFamily=Helvetica;fontSize=27;fontColor=#FFFFFF;strokeColor=default;fillColor=#FFCC99;" parent="1" vertex="1">
          <mxGeometry x="98" y="760" width="229" height="90" as="geometry" />
        </mxCell>
        <mxCell id="8r-zVtJabxCACw0IBOyv-28" value="&lt;p style=&quot;margin-top: 0pt ; margin-bottom: 0pt ; margin-left: 0in ; direction: ltr ; unicode-bidi: embed ; word-break: normal ; font-size: 15px&quot;&gt;&lt;span style=&quot;font-family: &amp;#34;bahnschrift semibold condensed&amp;#34; ; color: black&quot;&gt;Jika pernyataan memakai &lt;/span&gt;&lt;font color=&quot;#ff0000&quot;&gt;&lt;span style=&quot;font-family: &amp;#34;bahnschrift semibold condensed&amp;#34;&quot;&gt;kuantor eksistensial (Ǝ)&lt;/span&gt;&lt;span style=&quot;font-family: &amp;#34;bahnschrift semibold condensed&amp;#34;&quot;&gt;, &lt;/span&gt;&lt;/font&gt;&lt;span style=&quot;font-family: &amp;#34;bahnschrift semibold condensed&amp;#34; ; color: black&quot;&gt;maka gunakan &lt;/span&gt;&lt;span style=&quot;font-family: &amp;#34;bahnschrift semibold condensed&amp;#34;&quot;&gt;&lt;font color=&quot;#ff0000&quot;&gt;konjungsi (Λ)&lt;/font&gt;&lt;/span&gt;&lt;span style=&quot;font-family: &amp;#34;bahnschrift semibold condensed&amp;#34; ; color: black&quot;&gt;, yaitu&lt;/span&gt;&lt;font color=&quot;#ff0000&quot;&gt;&lt;span style=&quot;font-family: &amp;#34;bahnschrift semibold condensed&amp;#34;&quot;&gt;&amp;nbsp;&lt;/span&gt;&lt;span style=&quot;font-family: &amp;#34;bahnschrift semibold condensed&amp;#34;&quot;&gt;“Ada...yang... dan....”.&lt;/span&gt;&lt;/font&gt;&lt;/p&gt;" style="text;html=1;strokeColor=none;fillColor=none;align=left;verticalAlign=middle;whiteSpace=wrap;rounded=0;fontFamily=Helvetica;fontSize=8;fontColor=#FFFFFF;" parent="1" vertex="1">
          <mxGeometry x="101.5" y="765" width="222" height="80" as="geometry" />
        </mxCell>
      </root>
    </mxGraphModel>
  </diagram>
</mxfile>
